# xmcd CD database file generated by Grip 2.9
# 
# Track frame offsets:
#       180
#       16659
#       29727
#       50002
#       62125
#       88380
#       104889
#       119392
#       133688
#       149342
#       163319
#       178283
#       196466
#       218581
# 
# Disc length: 3194 seconds
# 
# Revision: 3
# Processed by: cddbd v1.4b41PL1 Copyright (c) Steve Scherf et al.
# Submitted via: Grip 2.9
# 
DISCID=e00c780e
DTITLE=Headlight - It's country time in Germany
DYEAR=1900
DGENRE=
TTITLE0=The trucker
TTITLE1=Poor boy blues
TTITLE2=Dixieland delight
TTITLE3=Sechs Tage unterwegs
TTITLE4=New Orleans
TTITLE5=Träumst du heut' nacht von mir?
TTITLE6=So lang halt ich zu dir
TTITLE7=Telephone line
TTITLE8=Leever Laster
TTITLE9=Freight train
TTITLE10=It's country time in Germany
TTITLE11=Achy breaky heart
TTITLE12=Nie mehr allein
TTITLE13=Papa, wo kommen die Country-Songs her?
EXTD=
EXTT0=
EXTT1=
EXTT2=
EXTT3=
EXTT4=
EXTT5=
EXTT6=
EXTT7=
EXTT8=
EXTT9=
EXTT10=
EXTT11=
EXTT12=
EXTT13=
PLAYORDER=
